# xmcd
#
# Track frame offsets:
#	150
#	15285
#	30535
#	45450
#	57257
#	72115
#	85370
#	96672
#	111210
#	125267
#	137425
#	151087
#	170415
#	182380
#	195282
#
# Disc length: 2771 seconds
#
# Revision: 0
# Processed by: cddbd v1.4PL0 Copyright (c) Steve Scherf et al.
# Submitted via: dBpowerAMP V4.0
#
DISCID=b20ad10f
DTITLE=Larry Redmon - Genuine Original
DYEAR=1900
DGENRE=
TTITLE0=East of the sun west of the moon
TTITLE1=On this island in the stream
TTITLE2=As is no waranty
TTITLE3=The garden song (lets get naked)
TTITLE4=Caribean snow
TTITLE5=It must be love 
TTITLE6=10yrs later 
TTITLE7=Crazy people like me
TTITLE8=Dusty
TTITLE9=Lookin for reason why 
TTITLE10=Where the highway ends
TTITLE11=Spring time Sunday
TTITLE12=Brand new goodbye song
TTITLE13=Garth Brooks ain't playin' here tonight
TTITLE14=Goodnight to cry
EXTD=Larry Redmon Genuine Original Bluegrass lovers delight. (chuck7ther@yahoo.com)
EXTT0=
EXTT1=
EXTT2=
EXTT3=
EXTT4=
EXTT5=
EXTT6=
EXTT7=
EXTT8=
EXTT9=
EXTT10=
EXTT11=
EXTT12=
EXTT13=
EXTT14=
PLAYORDER=
